<svg t="1614310082136" class="icon" viewBox="0 0 1024 1024" version="1.1" xmlns="http://www.w3.org/2000/svg"
    p-id="13651" width="200" height="200">
    <path
        d="M241.152 117.184c-4.544 0-6.4-9.088-6.4-13.888v-30.08c0-6.144 0.256-6.4 6.4-6.4h218.176c6.08 0 6.4 0.256 6.4 6.4v37.632c0 6.08-0.32 6.4-6.4 6.4H241.152zM512 761.536c-57.536 0-110.656-21.312-149.376-60.096-38.784-38.656-60.16-91.84-60.16-149.376s21.376-110.592 60.16-149.376c38.72-38.784 91.84-60.16 149.376-60.16 57.472 0 110.656 21.376 149.376 60.16 38.72 38.784 60.096 91.904 60.096 149.376 0 57.536-21.376 110.656-60.096 149.376-38.72 38.784-91.904 60.096-149.376 60.096z m0-376.128c-94.976 0-166.656 71.68-166.656 166.656A166.848 166.848 0 0 0 512 718.72a166.848 166.848 0 0 0 166.656-166.656A166.848 166.848 0 0 0 512 385.408z"
        p-id="13652" fill="#8e8989"></path>
    <path
        d="M105.664 957.248c-28.416 0-54.784-10.624-74.176-30.144a103.616 103.616 0 0 1-30.08-74.112V251.136c0-26.688 9.344-51.392 26.368-69.504a88.32 88.32 0 0 1 76.096-27.328 16.896 16.896 0 0 0 1.792 0.128h112.896c6.08 0 13.952 7.808 13.952 13.888 0 6.144-7.872 13.952-13.952 13.952H105.664c-39.232 0-68.864 29.568-68.864 68.864v601.856c0 39.232 29.568 68.864 68.864 68.864h812.544c39.232 0 68.864-29.632 68.864-68.864V251.136c0-39.296-29.632-68.864-68.864-68.864H504.448c-6.144 0-13.952-7.808-13.952-13.952 0-13.312 8.128-21.44 13.952-21.44h413.76c28.48 0 54.848 10.688 74.112 30.08 19.52 19.392 30.144 45.696 30.144 74.176v601.856a103.04 103.04 0 0 1-104.256 104.256H105.664z"
        p-id="13653" fill="#8e8989"></path>
    <path d="M832 280.064c5.376-14.656 17.472-27.84 33.6-27.84 15.744 0 32.64 12.224 40.128 27.84H832z" p-id="13654"
        fill="#8e8989"></path>
</svg>