<svg t="1614138371612" class="icon" viewBox="0 0 1024 1024" version="1.1" xmlns="http://www.w3.org/2000/svg" p-id="7735" width="200" height="200"><path d="M492.408 372.292l26.843 24.582-13.425 14.526h173.306l0.553 40.242-107.876 0.549v51.98l106.743 1.686v26.264H572.358l-0.549 93.904c35.766 1.103 47.503-13.978 47.503-13.978l-12.29-24.607 64.27-37.448 34.078 76.002V397.371c-40.791-105.088-212.993-25.162-212.993-25.162l0.031 0.083zM511.985 62C263.475 62 62 263.505 62 512.015S263.475 962 511.985 962C760.525 962 962 760.525 962 512.015S760.525 62 511.985 62z m-224.7 213.517c29.632 0 53.661 24.028 53.661 53.661 0 29.638-24.028 53.666-53.661 53.666-29.638 0-53.666-24.028-53.666-53.666 0-29.632 24.028-53.661 53.666-53.661z m54.763 299.631L263.78 736.136l-83.848-53.661 110.692-120.748c15.634-20.136 0-44.713 0-44.713l-81.613-70.428 35.797-49.19s39.134 30.187 82.166 72.665c43.026 42.478 15.074 105.087 15.074 105.087z m461.753 80.484s-6.707 95.032-99.478 92.796c-92.77-2.236-92.826 0-92.826 0l-26.847 0.03s-15.63-21.822 0.579-54.245c0 0 34.083-5.604 39.662 13.424h39.136s38.001-7.265 40.79-67.086l-53.661 40.237-19.552-39.684s-71.008 57.005-129.146 53.108h-78.823s-51.426-13.393-54.215-81.058v-52.559h80.51s-8.399 82.745 39.134 78.823l1.103-106.219H369.42v-26.844h120.748l-0.549-53.112-17.346-0.554-49.19 48.637-32.423-29.055 60.927-60.373-1.686-27.397-76.587 70.428-46.395-46.4s61.476-39.688 81.612-133.038l68.742 17.342-11.158 36.32s299.605-109.564 337.637 81.612v244.837l0.049 0.03z m0 0" fill="#FC4A38" p-id="7736"></path></svg>