<svg t="1614307489014" class="icon" viewBox="0 0 1024 1024" version="1.1" xmlns="http://www.w3.org/2000/svg" p-id="10841" width="200" height="200"><path d="M660.8896 261.44768c-7.26528-7.92064-19.6864-8.4224-27.76064-1.152-0.50176 0.4608-52.48512 46.42816-176.9472 46.42816-123.72992 0-175.872-45.42976-176.98304-46.40768a19.6096 19.6096 0 0 0-27.7248 0.96256 19.6608 19.6608 0 0 0 0.8448 27.81696c2.49856 2.32448 62.24896 57.00096 203.86304 57.00096s201.32352-54.67648 203.82208-57.00096a19.59424 19.59424 0 0 0 0.88576-27.648z" p-id="10842" fill="#cdcdcd"></path><path d="M771.16416 715.63776a19.67616 19.67616 0 0 0-19.6864 19.6864v52.5056c0 54.38976-44.33408 98.62656-98.816 98.62656h-392.96c-54.48192 0-98.816-44.04224-98.816-98.2016V254.83776c0-54.15424 44.33408-98.2016 98.816-98.2016h392.96c54.48192 0 98.816 44.33408 98.816 98.816v47.4112c0 10.88 8.8064 19.6864 19.6864 19.6864s19.6864-8.8064 19.6864-19.6864v-47.4112c0-76.19072-61.98272-138.1888-138.1888-138.1888h-392.96c-76.20608 0-138.1888 61.71136-138.1888 137.5744v533.41696c0 75.86304 61.98272 137.5744 138.1888 137.5744h392.96c76.20608 0 138.1888-61.90592 138.1888-137.99936v-52.5056a19.67104 19.67104 0 0 0-19.6864-19.6864z" p-id="10843" fill="#cdcdcd"></path><path d="M898.93376 329.89184l-6.49728-4.76672c-25.26208-18.5344-63.82592-12.30336-82.31936 13.09184l-206.01344 283.04896c-0.2816 0.38912-0.33792 0.87552-0.5888 1.28512a19.5328 19.5328 0 0 0-4.44928 7.33184l-35.91168 112.43008a19.712 19.712 0 0 0 18.7648 25.68704c3.42016 0 6.80448-0.88576 9.8816-2.67264l108.19584-62.9248c0.11264-0.06144 0.16384-0.1792 0.27648-0.24064 3.23584-1.36192 6.21568-3.3536 8.41728-6.41024l203.20768-283.39712c18.87232-26.36288 13.06624-63.35488-12.96384-82.46272z m-269.34272 333.85984l26.4192 18.688-39.79776 23.12704 13.37856-41.81504z m250.31168-274.36032l-191.82592 267.4944-40.41216-28.59008 194.28864-266.90048c6.11328-8.43776 18.80064-10.67008 27.18208-4.51584l6.49728 4.76672c8.7296 6.40512 10.65472 18.84672 4.27008 27.74528zM539.5456 576.79872c10.88 0 19.6864-8.8064 19.6864-19.6864s-8.8064-19.6864-19.6864-19.6864h-49.28l51.0464-52.75136a19.6864 19.6864 0 1 0-28.29824-27.37664l-56.05888 57.92256-56.064-57.92768a19.68128 19.68128 0 1 0-28.29824 27.37664l51.0464 52.75136h-49.28c-10.88 0-19.6864 8.8064-19.6864 19.6864s8.8064 19.6864 19.6864 19.6864h62.90432v43.56608H374.36416a19.67616 19.67616 0 0 0-19.6864 19.6864 19.67616 19.67616 0 0 0 19.6864 19.6864h62.90432v63.3856a19.67616 19.67616 0 0 0 19.6864 19.6864 19.67616 19.67616 0 0 0 19.6864-19.6864v-63.3856h62.90432a19.67616 19.67616 0 0 0 19.6864-19.6864 19.67616 19.67616 0 0 0-19.6864-19.6864H476.64128v-43.56608h62.90432z" p-id="10844" fill="#cdcdcd"></path></svg>