<svg t="1614308115889" class="icon" viewBox="0 0 1024 1024" version="1.1" xmlns="http://www.w3.org/2000/svg" p-id="12581" width="200" height="200"><path d="M128 85.333333h256v85.333334H170.666667v213.333333H85.333333V128a42.666667 42.666667 0 0 1 42.666667-42.666667z m42.666667 768h213.333333v85.333334H128a42.666667 42.666667 0 0 1-42.666667-42.666667v-256h85.333334v213.333333z m469.333333 0h213.333333v-213.333333h85.333334v256a42.666667 42.666667 0 0 1-42.666667 42.666667h-256v-85.333334z m0-768v85.333334h213.333333v213.333333h85.333334V128a42.666667 42.666667 0 0 0-42.666667-42.666667h-256zM128 469.333333a42.666667 42.666667 0 1 0 0 85.333334h768a42.666667 42.666667 0 1 0 0-85.333334H128z" p-id="12582" fill="#f66f0e"></path></svg>