<svg t="1614310157104" class="icon" viewBox="0 0 1024 1024" version="1.1" xmlns="http://www.w3.org/2000/svg" p-id="15369" width="200" height="200"><path d="M269.92 0q0 38.73 2.42 45.99 2.42 7.27 36.31 50.84-82.3 72.63-137.98 142.83-55.68 70.2-55.68 128.3 0 58.1 38.73 58.1t43.57-53.25q4.84-53.25 58.1-121.04 53.25-67.78 101.67-87.15 48.42-19.37 33.89-53.26-14.53-33.89 48.42-26.63 62.94 7.26 0 2.42T512 135.57q33.89 9.68 72.63 14.52 38.74 4.84 72.63 14.52 82.31 33.9 123.46 111.37 41.15 77.46 45.99 118.62 4.85 41.15 38.74 41.15t38.73-9.68q4.84-9.68-7.27-77.46-12.11-67.79-89.57-164.62-77.47-96.83-217.87-135.56-14.53-4.85-29.06-0.01Q545.89 53.26 269.92 0.01z m145.25 377.64q0 48.42 29.05 48.42t29.05-48.42q0-48.41-29.05-48.41t-29.05 48.41z m193.66 0q0 48.42 29.05 48.42t29.05-48.42q0-48.41-29.05-48.41t-29.05 48.41zM114.99 890.86h387.33V503.53H114.99v387.33z m455.11 0h67.78V503.53h-58.1l-9.68 387.33z m140.4-348.6q-4.85 38.73 29.05 38.73 33.89 0 33.89-38.73t-29.05-38.73q-29.05 0-33.9 38.73z m130.73 193.66h67.78V503.53h-67.78v232.39z m-590.68-33.89q0 53.25 53.26 53.25t53.26-53.25q0-53.25-53.26-53.25t-53.26 53.25z m455.11 188.83h67.79v-232.4h-67.79v232.4z m135.57-38.73q0 38.74 29.05 43.58 29.05 4.84 33.89-38.74 4.84-43.57-29.05-43.57t-33.89 38.74z m-716.56 140.4q9.68 33.89 9.68 4.84t14.53-33.89q14.53-4.84-9.68-4.84-24.2 0-14.53 33.89z m62.95 0q-14.53 33.89 14.52 29.05 29.05-4.84 24.21-14.52-4.84-9.69-19.37-9.69-14.53 0-14.53-9.69 0-9.68 9.69-9.68t4.84-9.68q-4.84-9.68-19.36 24.21z m77.46 0q-4.84 33.89-4.84 4.84t24.2-24.21q24.2 4.84 24.2 24.21t-9.68 24.21q-9.68 4.84 0 0t9.68-24.21q0-19.37-19.37-29.05-19.36-9.68-24.2 24.21z m101.67 0q0 33.89 4.84 19.37t24.21-19.37q19.37-4.84 19.37-14.52 0-9.69-24.21-14.53t-24.21 29.05z m162.19-16.94q16.95 16.94 21.79 21.78t-2.42 16.95q-7.26 12.11-2.42 7.26 4.84-4.84-19.37-29.05-24.2-24.21 0-24.21 24.21 0 4.84-4.84t-2.42 12.11z m55.69 2.41q4.85 19.37 19.37 24.21 14.52 4.84-9.69 9.68-24.21 4.85-19.37 9.69t24.21 0q19.37-4.84 12.11-16.95-7.26-12.11-9.69-14.52-2.42-2.42-16.94-7.26-14.52-4.85 4.84-9.68 19.37-4.84 4.84-9.68-14.53-4.84-9.68 14.52z m58.1 14.53q-4.85 33.89 0 19.37t24.21-19.37q19.37-4.84 14.52-19.37-4.84-14.52-19.36-14.52t-19.37 33.89z m77.46 0q-4.84 33.89-4.84 4.84t24.21-24.21q24.2 4.84 24.2 24.21t-9.68 24.21q-9.68 4.84 0 0t9.68-24.21q0-19.37-19.37-29.05t-24.2 24.21z m150.09 0q9.68 33.89 9.68 4.84t9.68-33.89q9.69-4.84-9.68-4.84-19.37 0-9.69 33.89z m-430.9 14.53q-4.85 19.37 19.37 14.52 24.21-4.84 19.37-19.37-4.84-14.52-19.37-14.52-14.52 0-19.37 19.37z m372.8-9.69q19.37 9.68 19.37 0t-19.37-9.68q-19.37 0 0 9.68z m-377.65-174.3H173.09V571.31h261.44v251.76z m-48.41 154.94q-19.37 9.68-19.37 0 0-9.69 19.37-9.69t0 9.69z m271.13 0q-19.37 9.68-19.37 0 0-9.69 19.37-9.69t0 9.69z" fill="#f66f0e" p-id="15370"></path></svg>