<svg t="1614150448658" class="icon" viewBox="0 0 1024 1024" version="1.1" xmlns="http://www.w3.org/2000/svg" p-id="3300" width="200" height="200"><path d="M813.38 159.68c22.44 19.56 41.94 39.06 58.5 58.5 153.3 178.2 158.94 434.88 22.2 621.72-16.8 22.44-33.42 41.94-52.86 61.38-8.4 5.64-13.86 8.4-22.44 8.4a25.2 25.2 0 0 1-19.5-8.4 26.76 26.76 0 0 1 0-39c16.8-16.74 33.48-36.24 47.52-52.86 122.82-167.4 117.24-396.18-16.8-555.06a478.38 478.38 0 0 0-52.86-52.92c-11.22-11.22-13.92-27.78-2.7-39 11.16-11.22 27.78-13.92 39-2.76z m-572.28 2.1c11.16 11.22 8.28 30.72-2.7 39-94.8 84.06-150.6 204.24-150.6 329.7 0 125.52 55.8 248.34 150.6 329.22 11.16 8.28 14.1 25.08 2.88 39a31.32 31.32 0 0 1-22.38 8.34 29.4 29.4 0 0 1-16.8-5.64C93.32 809.24 32 672.5 32 530.18c0-142.2 61.38-279 170.04-371.04 11.28-11.22 30.72-8.4 39.06 2.64z m52.92 131.7a29.7 29.7 0 0 1 2.7 39 294.48 294.48 0 0 0 0 393.42c11.58 16.56 8.7 33.12-2.52 41.64-5.58 5.58-11.22 5.58-19.56 5.58a32.04 32.04 0 0 1-22.38-8.28 353.34 353.34 0 0 1 2.7-468.6 29.7 29.7 0 0 1 39-2.76z m477.06 10.86c106.02 125.52 111.6 306.78 11.16 440.76-2.7 8.52-10.92 11.22-19.2 11.22a37.56 37.56 0 0 1-16.8-5.64c-11.22-8.22-13.92-27.78-5.64-39a297.78 297.78 0 0 0-11.22-371.1c-11.22-11.16-8.28-30.6 2.7-39 11.22-11.16 30.72-8.22 39 2.76zM478.16 443.72l30.72 36.3 30.72-36.3c16.8-19.5 41.88-33.36 67.02-33.36 25.02-2.76 50.16 5.58 72.54 22.38 39.24 36.24 42 97.68 8.52 139.44l-44.58 52.8c-11.22 11.28-27.78 13.98-39 2.76-11.16-11.22-13.86-27.78-2.64-39l44.52-52.92c13.92-16.8 13.92-44.58-5.58-58.5-8.34-8.34-19.5-11.22-30.72-11.22a34.08 34.08 0 0 0-27.84 13.92l-72.6 89.22-72.6-89.22c-8.28-11.22-25.08-16.8-39-13.92a47.76 47.76 0 0 0-33.36 27.84 39.42 39.42 0 0 0 8.28 41.88l103.32 122.82c16.8 19.44 53.16 19.44 69.72 0a29.64 29.64 0 0 1 39-2.7c11.22 8.28 11.22 27.78 2.7 39-19.5 22.44-47.52 33.36-78.24 33.36-30.66 0-58.44-11.16-78.18-33.3L327.62 572.18a102.96 102.96 0 0 1-16.8-97.8c11.16-33.36 41.82-55.8 75.3-64.02 33.36-5.64 69.6 5.58 92.04 33.36z" fill="#FC4A38" p-id="3301"></path></svg>