<svg t="1614138156622" class="icon" viewBox="0 0 1238 1024" version="1.1" xmlns="http://www.w3.org/2000/svg" p-id="4446" width="200" height="200"><path d="M973.894015 488.035097a354.437092 354.437092 0 1 0-595.055707 260.171908 26.93291 26.93291 0 1 0 36.574891-39.483646A300.517406 300.517406 0 1 1 619.456923 788.606369h-16.967733l-53.758088 112.471831a26.93291 26.93291 0 0 0 48.640835 23.216168l39.322048-82.253106a354.383226 354.383226 0 0 0 337.20003-353.952299z" p-id="4447" fill="#dbdbdb"></path><path d="M276.385519 5.558953A591.231234 591.231234 0 0 0 26.986776 488.035097c0 193.91695 94.103586 371.943483 249.398743 482.53001a26.93291 26.93291 0 0 0 31.242176-43.846777 537.41928 537.41928 0 0 1-226.7751-438.683233A537.41928 537.41928 0 0 1 307.573829 49.40573a26.93291 26.93291 0 0 0-31.242175-43.846777zM962.582193 970.672839A591.231234 591.231234 0 0 0 1211.980937 488.035097c0-193.91695-94.157452-371.943483-249.398744-482.53001a26.93291 26.93291 0 1 0-31.296041 43.846777A537.41928 537.41928 0 0 1 1158.115117 488.088963a537.41928 537.41928 0 0 1-226.828965 438.683233 26.93291 26.93291 0 1 0 31.242175 43.846777z" p-id="4448" fill="#dbdbdb"></path><path d="M272.237851 166.994813a471.32592 471.32592 0 0 0 0 642.296031 26.93291 26.93291 0 0 0 39.537512-36.628757 417.4601 417.4601 0 0 1 0-569.146248 26.93291 26.93291 0 0 0-39.537512-36.574892zM966.675995 809.236978a471.32592 471.32592 0 0 0 0-642.296031 26.93291 26.93291 0 0 0-39.537511 36.574892 417.4601 417.4601 0 0 1 0 569.146248 26.93291 26.93291 0 1 0 39.537511 36.574891z" p-id="4449" fill="#333333"></path></svg>